<svg xmlns="http://www.w3.org/2000/svg" width="132" height="132" viewBox="0 0 132 132"><g><g><g><path fill="#ff9100" d="M50.328 13.76a2.29 2.29 0 0 1-2.292-2.293 2.29 2.29 0 0 1 2.292-2.293 2.29 2.29 0 0 1 2.293 2.293 2.29 2.29 0 0 1-2.293 2.292z"/></g><g><path fill="#ff9100" d="M76.613 8.896H61.29a2.189 2.189 0 0 0 0 4.378h15.323a2.189 2.189 0 1 0 0-4.378z"/></g><g><path fill="#ff9100" d="M56.913 118.343a6.567 6.567 0 1 1 6.566 6.567 6.574 6.574 0 0 1-6.566-6.567zm4.377 0a2.19 2.19 0 1 0 4.379 0 2.19 2.19 0 0 0-4.379 0z"/></g><g><path fill="#ff9100" d="M131.336 32.975v52.534a6.574 6.574 0 0 1-6.566 6.567H100.69v28.456c-.006 6.042-4.902 10.938-10.944 10.945H37.212c-6.042-.007-10.938-4.903-10.945-10.945V96.454h-19.7A6.575 6.575 0 0 1 0 89.887V63.62a6.574 6.574 0 0 1 6.567-6.567h19.7V11.085C26.274 5.043 31.17.147 37.212.14h52.535c6.042.007 10.938 4.903 10.944 10.945v15.323h24.079a6.575 6.575 0 0 1 6.566 6.567zM30.646 17.652h65.667v-6.567a6.574 6.574 0 0 0-6.566-6.566H37.212a6.574 6.574 0 0 0-6.567 6.566zM39.4 92.076a2.191 2.191 0 0 0 2.189-2.189v-8.756c0-.689.324-1.337.876-1.75l6.42-4.816-6.42-4.816a2.189 2.189 0 0 1-.876-1.751V63.62a2.191 2.191 0 0 0-2.189-2.19H6.567a2.191 2.191 0 0 0-2.189 2.19v26.267a2.191 2.191 0 0 0 2.189 2.189zm56.912 17.512H30.645v10.944a6.574 6.574 0 0 0 6.567 6.567h52.535a6.574 6.574 0 0 0 6.566-6.567zm0-17.512H67.857a6.574 6.574 0 0 1-6.567-6.567V51.581l-7.88-5.91a2.19 2.19 0 0 1 0-3.503l7.88-5.91v-3.283a6.575 6.575 0 0 1 6.567-6.567h28.456V22.03H30.645v35.023h8.756a6.574 6.574 0 0 1 6.567 6.567v3.283l7.88 5.91a2.189 2.189 0 0 1 0 3.503l-7.88 5.91v7.661a6.574 6.574 0 0 1-6.567 6.567h-8.756v8.756h65.668zm30.646-59.101a2.191 2.191 0 0 0-2.19-2.19H67.858a2.191 2.191 0 0 0-2.189 2.19v4.378c0 .689-.324 1.337-.875 1.75l-6.421 4.817 6.42 4.815c.552.413.876 1.062.876 1.751V85.51a2.191 2.191 0 0 0 2.19 2.19h56.912a2.191 2.191 0 0 0 2.189-2.19z"/></g><g><path fill="#ff9100" d="M35.023 65.809H10.945a2.19 2.19 0 0 0 0 4.378h24.078a2.189 2.189 0 1 0 0-4.378z"/></g><g><path fill="#ff9100" d="M35.023 74.565H10.945a2.189 2.189 0 0 0 0 4.377h24.078a2.189 2.189 0 1 0 0-4.377z"/></g><g><path fill="#ff9100" d="M28.456 83.32H10.945a2.189 2.189 0 0 0 0 4.378h17.511a2.189 2.189 0 0 0 0-4.378z"/></g><g><path fill="#ff9100" d="M119.08 61.768a6.804 6.804 0 0 1 1.312 4.04 6.732 6.732 0 0 1-2.19 5.012v3.745a6.575 6.575 0 0 1-6.566 6.567H80.991a6.575 6.575 0 0 1-6.567-6.567V70.82a6.732 6.732 0 0 1-2.189-5.011 6.804 6.804 0 0 1 1.312-4.041 8.642 8.642 0 0 1-3.5-6.904 4.383 4.383 0 0 1 4.377-4.378h.16a15.344 15.344 0 0 1 15.163-13.133h13.133c7.613.01 14.067 5.6 15.164 13.133h.159a4.383 4.383 0 0 1 4.378 4.378 8.641 8.641 0 0 1-3.5 6.904zM79.022 50.486h34.584a10.963 10.963 0 0 0-10.726-8.755H89.747a10.963 10.963 0 0 0-10.725 8.755zm34.803 21.89H78.802v2.189a2.191 2.191 0 0 0 2.189 2.188h30.645a2.191 2.191 0 0 0 2.189-2.188zm2.19-6.567c0-1.207 1.386-2.19.398-2.19v-.028a9.722 9.722 0 0 1-.711.029c-2.119 0-6.324-.712-7.922-1.97-1.598 1.258-1.425 1.97-3.544 1.97-2.119 0-6.323-.712-7.922-1.97-1.598 1.258-1.424 1.97-3.544 1.97-2.119 0-6.323-.712-7.921-1.97-1.599 1.258-1.426 1.97-3.544 1.97-.24 0-.477-.012-.712-.03v.03c-.987 0-3.98.982-3.98 2.189s.804 2.189 1.791 2.189h35.819c.987 0 1.793-.982 1.793-2.19zm2.188-10.948l-43.779.003c0 2.414 2.104 4.378 4.69 4.378 1.56.017 3.03-.73 3.937-2a2.19 2.19 0 0 1 3.593 0 4.875 4.875 0 0 0 7.873 0 2.189 2.189 0 0 1 3.593 0 4.875 4.875 0 0 0 7.873 0 2.19 2.19 0 0 1 3.593 0 4.772 4.772 0 0 0 3.936 2c2.587 0 4.69-1.964 4.69-4.378z"/></g></g></g></svg>