<svg xmlns="http://www.w3.org/2000/svg" width="148" height="133" viewBox="0 0 148 133"><g><g><g><path fill="#ff9100" d="M32.947 39.6c4.33 0 7.854 3.343 7.854 7.452v27.39h9.386c-.521-1.799-.715-3.92-.588-6.388.204-10.432 2.2-19.223 5.933-26.13 2.9-5.363 6.282-8.578 9.185-10.5-3.407-3.322-5.377-8.048-5.377-13.498C59.34 8.119 67.59.14 77.73.14s18.389 7.978 18.389 17.785c0 1.135-.97 2.055-2.168 2.055h-1.473c.136.775.208 1.566.208 2.369 0 6.911-5.208 12.687-12.093 13.982.722 2.54 1.08 5.537 1.08 8.941l5.406 4.41 13.155 1.009 15.174-4.757c1.39-.439 2.967-.934 4.335.001 1.348.922 1.348 2.537 1.348 3.067v10.699c0 1.135-.97 2.055-2.168 2.055h-2.58l3.957 12.97c.333 1.09-.33 2.231-1.48 2.547-1.15.317-2.351-.313-2.684-1.404l-4.307-14.113h-6.163c7.665 22.165 3.291 36.96-3.43 51.933h3.896l16.23-17.208-3.433-11.242c-.333-1.09.33-2.23 1.48-2.546 1.15-.316 2.352.312 2.685 1.403l3.282 10.754c10.153-.16 19.234 6.477 21.548 16.026.268 1.106-.46 2.21-1.626 2.464l-3.078.671c.786 7.743-4.59 15.049-12.792 16.839a17.535 17.535 0 0 1-3.748.406c-3.077 0-6.1-.817-8.772-2.406-3.138-1.865-5.475-4.605-6.74-7.844l-2.428.53c-.724.158-1.41.238-2.096-.111a2.375 2.375 0 0 1-1.22-1.578 19.473 19.473 0 0 1-.35-2.046H59.74c-1.45 8.547-9.12 14.99-18.279 14.99-9.16 0-16.829-6.443-18.279-14.99h-1.654l-.403.003c-.62 0-1.516-.065-2.25-.774-.369-.355-.8-.99-.767-2 .06-1.93.366-3.795.888-5.567-1.727-9.94-.066-15.995 2.397-20.732-1.557-.968-2.59-2.636-2.59-4.53v-5.65H7.855C3.524 78.552 0 75.21 0 71.101V47.05c0-4.108 3.522-7.45 7.853-7.45zm87.263 85.768c2.775 1.649 6.058 2.173 9.245 1.477 5.867-1.28 9.781-6.381 9.496-11.898l-23.513 5.132c.973 2.172 2.619 4.01 4.772 5.289zm-10.847-8.186l33.72-7.358c-2.603-6.757-9.605-11.23-17.26-10.845l-16.518 17.514c.015.231.034.46.058.69zM77.25 87.562v7.756h7.938V84.676c0-12.03-6.925-14.175-10.032-14.529H53.904c.086 2.73.736 4.672 1.97 5.904 1.437 1.435 3.897 2.135 7.52 2.138l7.78.008c2.775 0 4.608 1.065 5.447 3.165.63 1.574.63 3.514.63 6.2zm20.268 26.122a161.068 161.068 0 0 0 2.3-5.236H77.312c-2.917 0-4.396-1.259-4.396-3.742v-15.09h-17.11c-1.197 0-2.167-.92-2.167-2.055 0-1.136.97-2.055 2.168-2.055H72.9c-.028-1.168-.107-2.123-.333-2.687-.11-.274-.204-.511-1.394-.511L63.39 82.3c-4.875-.004-8.362-1.122-10.66-3.419-.107-.106-.208-.217-.309-.328H23.137v5.65c0 .705.628 1.303 1.372 1.303h21.58c1.197 0 2.167.92 2.167 2.055 0 1.136-.97 2.056-2.167 2.056H25.782c-1.713 3.015-3.254 6.768-3.162 12.696 4.288-5.649 11.23-9.281 19.11-9.281 6.328 0 12.266 2.354 16.72 6.628 3.952 3.792 6.326 8.714 6.814 14.03zM73.713 66.037a73.59 73.59 0 0 0 2.078-7.608l-5.993-3.69c-3.272-2.014-4.974-4.86-4.67-7.81.27-2.615 2.144-4.95 4.775-5.95 2.403-.912 4.99-.625 7.275.76-.188-1.965-.54-3.72-1.047-5.21a16.006 16.006 0 0 1-2.742-.514 18.535 18.535 0 0 1-5.06-1.901C64.154 36.479 54.97 44.15 54 66.037zM91.625 15.87C90.602 9.302 84.76 4.252 77.729 4.252c-7.749 0-14.054 6.134-14.054 13.674 0 6.132 3.101 11.074 8.101 13.25V20.36c0-1.873.756-4.17 4.356-4.482.065-.005.13-.008.196-.008zm-3.275 6.48c0-.811-.097-1.604-.289-2.369H76.435a3.574 3.574 0 0 0-.302.042 2.309 2.309 0 0 0-.021.337v12.025c.516.072 1.036.108 1.556.109h.014c5.883-.006 10.668-4.554 10.668-10.144zm2.81 31.771l-5.134-.394a2.232 2.232 0 0 1-1.24-.49l-9.265-7.558-.002-.001c-.896-.732-1.852-1.108-2.783-1.108-.415 0-.824.075-1.221.225-1.146.436-1.959 1.43-2.073 2.533-.143 1.389.822 2.797 2.716 3.963l10.325 6.355h8.677v-3.525zm9.162.703l-4.826-.37v3.193h5.607c.727 0 .904-.573.925-1.053.012-.273-.015-1.639-1.707-1.77zm5.13-1.42a5.773 5.773 0 0 1 .908 3.358 5.675 5.675 0 0 1-.11.868c0 .006.004.011.003.016h10.502v-7.803l-11.311 3.546.008.016zm-23.61 8.354c-.419 0-.829-.115-1.18-.332l-.981-.603a77.243 77.243 0 0 1-1.595 5.721c4.42 1.237 11.438 5.236 11.438 18.132v10.848c1.52.291 3.32.964 4.824 2.458 1.587 1.574 2.493 3.707 2.71 6.355h4.373c4.407-12.042 6.083-24.857-.34-42.58zM77.25 99.429v4.908h15.458c-.173-1.522-.673-2.7-1.494-3.515-1.221-1.212-2.942-1.393-3.858-1.393zm-35.79 29.253c6.776 0 12.491-4.63 13.874-10.88H27.586c1.383 6.25 7.098 10.88 13.874 10.88zm19.45-14.991c-1.064-9.295-9.26-16.548-19.18-16.548-8.71 0-16.024 5.446-18.446 13.07a18.116 18.116 0 0 0-.74 3.478zM4.335 71.1c0 1.842 1.578 3.34 3.518 3.34h28.613V63.826H4.335zm0-11.386h32.13v-4.372H4.336zm0-8.483h32.13v-4.18c0-1.842-1.578-3.34-3.518-3.34H7.854c-1.94 0-3.518 1.498-3.518 3.34z"/></g></g></g></svg>