<?xml version="1.0" standalone="no"?>
<svg viewBox="0 0 200 200" xmlns="http://www.w3.org/2000/svg">
  <path fill="#FFFAF3" d="M44.5,-76.7C58.5,-69,71.4,-58.8,79.3,-45.6C87.3,-32.4,90.3,-16.2,89.2,-0.7C88.1,14.9,82.8,29.8,75.1,43.6C67.5,57.3,57.6,70,44.7,78.3C31.8,86.5,15.9,90.5,0.3,90C-15.3,89.6,-30.7,84.7,-43.4,76.2C-56.1,67.8,-66.1,55.9,-73.7,42.6C-81.2,29.3,-86.3,14.7,-87.1,-0.4C-87.8,-15.5,-84.2,-31,-76.4,-43.9C-68.6,-56.7,-56.5,-66.9,-43.1,-75C-29.7,-83.1,-14.8,-89.1,0.2,-89.4C15.2,-89.7,30.5,-84.4,44.5,-76.7Z" transform="translate(100 100)" />
</svg>
