<?xml version="1.0" standalone="no"?>
<svg viewBox="0 0 200 200" xmlns="http://www.w3.org/2000/svg">
  <path fill="#F6F5F5" d="M43.3,-75.7C56.4,-67.3,67.7,-56.5,75.3,-43.4C82.9,-30.4,86.9,-15.2,88,0.6C89.1,16.4,87.2,32.9,79.4,45.5C71.5,58.1,57.7,67,43.4,74.7C29.2,82.3,14.6,88.8,-0.5,89.7C-15.6,90.5,-31.1,85.7,-45.2,78C-59.3,70.2,-71.8,59.4,-79.2,46C-86.6,32.5,-88.7,16.2,-88.9,-0.1C-89.1,-16.5,-87.3,-32.9,-80.2,-46.9C-73.1,-60.8,-60.7,-72.3,-46.5,-80.1C-32.2,-87.9,-16.1,-92,-0.5,-91.1C15,-90.2,30.1,-84.2,43.3,-75.7Z" transform="translate(100 100)" />
</svg>
