<svg xmlns="http://www.w3.org/2000/svg" width="58" height="59" viewBox="0 0 58 59"><g><g><path fill="#ff9100" d="M58.033 20.084c0 5.464-3.078 10.44-7.913 12.91V52.95a5.387 5.387 0 0 1-5.382 5.382H13.3c-1.439 0-2.79-.56-3.807-1.58a5.347 5.347 0 0 1-1.574-3.808l.025-19.932A14.503 14.503 0 0 1 0 20.083c0-8 6.508-14.507 14.508-14.508.8 0 1.635.106 2.502.267C19.915 2.456 24.215.3 29.016.3c4.802 0 9.102 2.156 12.007 5.542.867-.16 1.702-.266 2.502-.266 8 0 14.508 6.508 14.508 14.508zM47.482 47.78H10.563l-.007 5.167a2.724 2.724 0 0 0 .803 1.942c.52.52 1.208.805 1.941.805h31.438a2.747 2.747 0 0 0 2.744-2.743zm7.913-27.697c0-6.546-5.324-11.87-11.87-11.87-.256 0-.526.03-.791.051 1.334 2.32 2.11 5 2.11 7.862a1.318 1.318 0 1 1-2.638 0c0-7.272-5.917-13.19-13.19-13.19-7.272 0-13.189 5.918-13.189 13.19a1.318 1.318 0 1 1-2.638 0c0-2.862.776-5.542 2.11-7.862-.265-.02-.535-.051-.79-.051-6.547 0-11.871 5.324-11.871 11.87 0 4.715 2.796 8.979 7.125 10.872a1.308 1.308 0 0 1 .808 1.036c.01.07.014.144.013.216l-.017 12.936H47.48V32.19a1.305 1.305 0 0 1 .215-.75 1.296 1.296 0 0 1 .602-.5 11.873 11.873 0 0 0 7.097-10.856z"/></g></g></svg>